<svg xmlns="http://www.w3.org/2000/svg" viewBox="0 0 369.76 94.16"><defs><style>.cls-1{fill:#262626;}</style></defs><g id="Layer_2" data-name="Layer 2"><g id="Layer_2-2" data-name="Layer 2"><path class="cls-1" d="M113.62,53.26c0,2.42,0,4.79.14,7.09a23.5,23.5,0,0,0,.78,5.6,6.88,6.88,0,0,0,2.89,1c1.07.12,2.08.2,3,.25a14.16,14.16,0,0,1,2.39.28c.64.14,1,.45,1,.93a.73.73,0,0,1-.36.61,2.1,2.1,0,0,1-1.14.24c-1.38,0-3.26,0-5.64-.17s-5.09-.25-8.13-.25a73.3,73.3,0,0,0-8.81.39c-2,.26-3.15.39-3.53.39a1.4,1.4,0,0,1-.85-.25.79.79,0,0,1-.36-.68.86.86,0,0,1,.86-1c.57,0,1.64-.19,3.21-.43a19,19,0,0,0,2.56-.39c.67-.17,1.33-.37,2-.61.29-1,.52-2.12.71-3.21s.36-2.46.5-4.1.25-3.69.32-6.14.11-5.59.11-9.45c0-3.51,0-6.5-.07-9s-.13-4.49-.25-6.13-.24-2.94-.36-3.89a17.79,17.79,0,0,0-.39-2.21,5.29,5.29,0,0,0-2.42-.82c-1-.12-2-.21-2.93-.28a21.94,21.94,0,0,1-2.46-.32c-.69-.15-1-.48-1-1s.38-.93,1.14-.93a18.65,18.65,0,0,1,4.39.32c4.29,1.36,9.63-.43,11-.89,1.08-.36,1.7-.68,3.64-1.28,1.38-.43,2.84-.81,4.39-1.15a21.6,21.6,0,0,1,4.53-.5,27.6,27.6,0,0,1,6.77.82,17.33,17.33,0,0,1,5.6,2.47,12.75,12.75,0,0,1,3.82,4.06,10.94,10.94,0,0,1,1.42,5.64,11.85,11.85,0,0,1-1.46,5.81A21.32,21.32,0,0,1,136.94,39a25.74,25.74,0,0,1-4.85,3.82,35.07,35.07,0,0,1-4.92,2.53,24,24,0,0,1,5.53.61,19.35,19.35,0,0,1,4.7,1.71,12.42,12.42,0,0,1,3.5,2.67,7.9,7.9,0,0,1,1.82,3.57,3.11,3.11,0,0,1-.18,1.32c-.12.21-.35.56-.68,1,.95,1.53,2,3.32,3.17,5.39A49.8,49.8,0,0,0,149,67.56a24.09,24.09,0,0,0,4.85,4.78,9.85,9.85,0,0,0,5.95,2c.43,0,.92,0,1.46-.07a8.72,8.72,0,0,0,1.57-.29,4.63,4.63,0,0,0,1.39-.64,2.46,2.46,0,0,0,.93-1.14,1,1,0,0,1,.57-.22.46.46,0,0,1,.47.36,6.62,6.62,0,0,1,.17.71q-1.42,3.21-7.06,3.21a16.29,16.29,0,0,1-5.45-.92,24.68,24.68,0,0,1-5-2.46,34.38,34.38,0,0,1-4.56-3.53q-2.17-2-4.1-4.14c-1-1-2.06-2.35-3.32-3.92s-2.6-3.18-4-4.82a61.15,61.15,0,0,0-4.46-4.63,21.41,21.41,0,0,0-4.6-3.39,10.26,10.26,0,0,0-2.42-.75,25.68,25.68,0,0,0-2.6-.36c-.84-.07-1.61-.1-2.32-.1h-1.64a7.1,7.1,0,0,0-.72,0,2.82,2.82,0,0,1-.42,0Zm1.21-30a23.58,23.58,0,0,0-.57,3.78c-.14,1.62-.26,3.39-.36,5.32s-.17,3.92-.21,6-.07,4-.07,5.88a4.86,4.86,0,0,0,2.74.64c1.36,0,2.82.07,4.39.07a14.13,14.13,0,0,0,3.46-.35,7.28,7.28,0,0,0,2.6-1.29,8.07,8.07,0,0,0,1.61-1.64,18.14,18.14,0,0,0,1.71-2.71,19.38,19.38,0,0,0,1.39-3.53,14.9,14.9,0,0,0,.57-4.17,21.42,21.42,0,0,0-.71-5.74,15.27,15.27,0,0,0-1.93-4.35,8.75,8.75,0,0,0-2.85-2.78,6.75,6.75,0,0,0-3.5-1,7.32,7.32,0,0,0-2.24.4,14.2,14.2,0,0,0-2.47,1,11.25,11.25,0,0,0-2.13,1.46A3.92,3.92,0,0,0,115,22Z"/><path class="cls-1" d="M183.22,61.48a10.43,10.43,0,0,0-.53-2.1A1.6,1.6,0,0,0,181,58.27c-.71,0-1.67,0-2.89.11s-2.51.16-3.88.28-2.76.22-4.14.29-2.59.11-3.64.11a31.25,31.25,0,0,1-11-1.79,23.28,23.28,0,0,1-8.06-4.92,20.6,20.6,0,0,1-5-7.52,26.24,26.24,0,0,1-1.72-9.67,31.13,31.13,0,0,1,2.36-12.66,24.11,24.11,0,0,1,6.35-8.73,25.39,25.39,0,0,1,9.2-5,36.79,36.79,0,0,1,10.91-1.61c1.14,0,2.38,0,3.71.11s2.59.17,3.78.28,2.23.24,3.14.36,1.54.23,1.92.32.48-.35.71-1.21.54-1.79.9-2.82a19.43,19.43,0,0,1,1.24-2.85C185.41.44,186,0,186.65,0a5.09,5.09,0,0,1,1.71.78c.33.29.16.67-.5,1.15a10,10,0,0,0-2.75,3.45,29.32,29.32,0,0,0-2,5.25,19.62,19.62,0,0,0-.75,2.64c-.26,1.14-.49,2.42-.67,3.85a.73.73,0,0,1-.18.33.67.67,0,0,1-.23.13,1.22,1.22,0,0,1-.49.07,1.13,1.13,0,0,1-.37-.09,1.39,1.39,0,0,1-.66-.94,8,8,0,0,0-1.36-2.25A12.37,12.37,0,0,0,175.81,12a15.27,15.27,0,0,0-3.93-1.89,16.37,16.37,0,0,0-5.13-.75A10.67,10.67,0,0,0,160.9,11a16.25,16.25,0,0,0-4.57,4.42,23.37,23.37,0,0,0-3.06,6.28A28.89,28.89,0,0,0,151.91,29a18.69,18.69,0,0,0,2.39.28c1.21.1,2.53.17,4,.22s2.8.08,4.14.1,2.33,0,3,0a44.61,44.61,0,0,0,4.5-.22,36.83,36.83,0,0,0,4.06-.6,23.28,23.28,0,0,0,3.21-.89,5.43,5.43,0,0,0,1.93-1.07.78.78,0,0,1,.82-.36,1.11,1.11,0,0,1,.75.36c-.1.43-.27,1-.5,1.67s-.5,1.49-.79,2.39a24.11,24.11,0,0,0-.71,3,19.89,19.89,0,0,0-.29,3.42c-.09.48-.37.62-.82.43a1.3,1.3,0,0,1-.82-.78,2.81,2.81,0,0,0-1.39-1.79,8.81,8.81,0,0,0-2.85-1,26.54,26.54,0,0,0-4-.39c-1.47-.05-3.07-.07-4.78-.07-3.23,0-5.84,0-7.81.07s-3.36.09-4.17.14a37.34,37.34,0,0,0,.32,4.64,28.14,28.14,0,0,0,1.11,5,26.1,26.1,0,0,0,2.06,4.81,17,17,0,0,0,3.21,4.14,14.68,14.68,0,0,0,4.6,2.89,16.62,16.62,0,0,0,6.17,1.07,19.65,19.65,0,0,0,5.92-.82,17.6,17.6,0,0,0,4.35-2,13.64,13.64,0,0,0,2.89-2.46,9.59,9.59,0,0,0,1.54-2.28c.14-.15.23-.22.28-.22a1.41,1.41,0,0,1,.68.22.64.64,0,0,1,.39.57c-.14.52-.28,1.09-.43,1.71a20.72,20.72,0,0,0-.35,4.07c0,1.23,0,2.44.14,3.63a14.58,14.58,0,0,0,.5,3,3,3,0,0,1-1.25.25C183.54,62.13,183.32,61.91,183.22,61.48Z"/><path class="cls-1" d="M182.18,65.23c.53,0,1.07,0,1.64,0a6.23,6.23,0,0,0,1.36-.17,1.83,1.83,0,0,0,.85-.54,3.61,3.61,0,0,0,.65-1.43,20.9,20.9,0,0,0,.5-2.92c.14-1.26.25-2.94.32-5s.13-4.68.18-7.77.07-6.83.07-11.2q0-5.35-.15-8.92c-.09-2.37-.23-4.29-.42-5.74-.25-1.9-.23-2.52-.75-3.1-1.08-1.19-3.36-1.44-5-.84l-.12,0c-.27-.1-.33-.23-.35-.28s0-.12-.05-.25,0-.09,0-.15a1,1,0,0,1,0-.17A4.11,4.11,0,0,1,181,16a.46.46,0,0,1,.5-.43h6.35c2,0,3.73-.05,5.06-.14a30.85,30.85,0,0,0,3.78-.5c.71-.15,1,.09.93.71a14.09,14.09,0,0,0-.14,1.43c0,.66-.11,1.38-.18,2.14s-.13,1.48-.18,2.17-.07,1.2-.07,1.53a17.23,17.23,0,0,1,2.82-2.42,30.53,30.53,0,0,1,4.6-2.71,36.84,36.84,0,0,1,5.77-2.21,22.23,22.23,0,0,1,6.35-.93,27.07,27.07,0,0,1,7.92,1.11,17.53,17.53,0,0,1,6.24,3.28,14.82,14.82,0,0,1,4.06,5.49,19.13,19.13,0,0,1,1.47,7.81,33.38,33.38,0,0,1-.57,6c-.39,2.06-.86,4.12-1.43,6.17s-1.19,4-1.86,6-1.28,3.71-1.85,5.35-1,3.1-1.43,4.39a11.36,11.36,0,0,0-.57,3,1.41,1.41,0,0,0,.75,1.25,5.29,5.29,0,0,0,2.61.46c.67,0,1.23,0,1.67-.07a16.89,16.89,0,0,0,2-.3c.58.12.69.21.69.27s-.5,0-.79.39-.05.53-.39,1a2,2,0,0,1-.29.32.63.63,0,0,1-.4.21h-.07c-.3,0-1.22,0-1.32,0-.55,0-1.1,0-1.65.08-.94,0-1.51,0-3.83,0l-4.42,0h-3.32c-.71,0-1.07-.24-1.07-.71a1.18,1.18,0,0,1,.07-.54.36.36,0,0,1,.25-.14,2.11,2.11,0,0,0,.43-.14,2.49,2.49,0,0,0,.68-.54,17.21,17.21,0,0,0,1.64-4,57.6,57.6,0,0,0,1.53-6.59q.67-3.78,1.14-8.21a84.3,84.3,0,0,0,.47-8.84,28,28,0,0,0-1.07-8.13,17.82,17.82,0,0,0-2.93-5.85,12.2,12.2,0,0,0-4.28-3.53,11.66,11.66,0,0,0-5.13-1.18,14.21,14.21,0,0,0-4.82.89,18,18,0,0,0-4.53,2.43,17.41,17.41,0,0,0-3.6,3.57,10.32,10.32,0,0,0-2,4.24,27.78,27.78,0,0,0-.36,3.49c-.09,1.67-.16,3.59-.21,5.78s-.08,4.49-.11,6.92,0,4.73,0,6.92c0,1.38,0,2.7.07,4s.12,2.4.21,3.42.19,1.89.29,2.6a5.56,5.56,0,0,0,.28,1.36,2.17,2.17,0,0,0,.64.89,4.54,4.54,0,0,0,2,.25,6.34,6.34,0,0,0,1.11-.07,5.24,5.24,0,0,1,1-.07.6.6,0,0,1,.64.39,1.91,1.91,0,0,1,.14.68.83.83,0,0,1-.24.42.79.79,0,0,1-.61.29c-.29,0-.77,0-1.46,0s-1.47,0-2.32,0-1.7,0-2.53,0l-2,0-3.82,0-3.67.07c-1.14,0-2.16.06-3,.11s-1.47.1-1.75.14-.43-.19-.43-.57a1.76,1.76,0,0,1,.25-.82c.17-.31.37-.46.61-.46Z"/><path class="cls-1" d="M233.79,52.27l-.27,0c-.09,0-.15-.1-.2-.23a2.29,2.29,0,0,1,.17-.47,3.22,3.22,0,0,1,.57-.87,4.41,4.41,0,0,1,1-.84,2.81,2.81,0,0,1,1.47-.36,2.65,2.65,0,0,1,1.74.56,4.08,4.08,0,0,1,1.07,1.57,8.53,8.53,0,0,1,.53,2.31,26.86,26.86,0,0,1,.14,2.77,6.7,6.7,0,0,0,1.5,3.28,14.94,14.94,0,0,0,3.21,3,19.1,19.1,0,0,0,4.18,2.2,13.59,13.59,0,0,0,4.41.94c3.38.09,5.86-.64,7.42-2.17A8,8,0,0,0,263.07,58a9.3,9.3,0,0,0-1.14-4.88,8.76,8.76,0,0,0-3-3,18.52,18.52,0,0,0-4.31-1.83c-1.61-.47-3.24-.91-4.91-1.31s-3.31-.84-4.92-1.33a16.27,16.27,0,0,1-4.31-2,9.48,9.48,0,0,1-3-3.31,10.68,10.68,0,0,1-1.13-5.24,13,13,0,0,1,1.37-5.85,14.68,14.68,0,0,1,3.91-4.88A19,19,0,0,1,247.73,21,25.45,25.45,0,0,1,256,19.79c3.36,0,5.28.09,7.55.87a11.81,11.81,0,0,0,4.64.53,1.92,1.92,0,0,0,1.27-.5,2.18,2.18,0,0,0,.47-1.07c.21-.84.11-1.5.49-1.74l0,0c.29-.11.45.33,1,.34.42,0,.47-.21,1-.21a1.34,1.34,0,0,1,1,.36,1.07,1.07,0,0,1,.37.71,1,1,0,0,1-.54.53c-.27.13-.51.27-.73.4q-2.07,1.07-3.44,5a32.72,32.72,0,0,0-1.58,9.59.44.44,0,0,1-.33.2,2.25,2.25,0,0,1-.6.07,2.5,2.5,0,0,1-.74-.07,12,12,0,0,0-1.2-4.08,13.15,13.15,0,0,0-2.77-3.77,13.89,13.89,0,0,0-4.35-2.78,15.14,15.14,0,0,0-5.85-1.06,10.92,10.92,0,0,0-3.6.56,8.28,8.28,0,0,0-2.71,1.54,6.7,6.7,0,0,0-1.67,2.17,5.59,5.59,0,0,0-.57,2.41,7.16,7.16,0,0,0,2.27,5.11,14.21,14.21,0,0,0,6.89,3.44c1.91.49,3.91,1,6,1.64a23.81,23.81,0,0,1,5.65,2.44,14.22,14.22,0,0,1,4.21,3.88,10,10,0,0,1,1.67,6A14.87,14.87,0,0,1,268.18,59a19.91,19.91,0,0,1-4.31,5.71,21.3,21.3,0,0,1-6.08,4,17.43,17.43,0,0,1-7,1.47,39.07,39.07,0,0,1-5.35-.37l-.18,0s-.43-.06-.87-.15a60.49,60.49,0,0,1-7-2,13,13,0,0,0-1.62-.51c-.6-.15-1.1-.24-1.42-.29.51-.9.91-1.64,1.19-2.19s.37-.73.44-.87c.24-.47.49-1,.77-1.67a19.58,19.58,0,0,0,.93-2.77,12,12,0,0,0,.37-3,7.19,7.19,0,0,0-.7-3.55,2,2,0,0,0-1.64-1.2,1.3,1.3,0,0,0-.94.27,7.79,7.79,0,0,0-.66.8Z"/><path class="cls-1" d="M289,17.33a6.83,6.83,0,0,0-2.37,1.94,20,20,0,0,0-2.81,4.31A35.54,35.54,0,0,0,281.37,30a33,33,0,0,0-1.1,8.36,37.77,37.77,0,0,0,1,9.59,23.13,23.13,0,0,0,3,7.15A13.44,13.44,0,0,0,289,59.57a12.36,12.36,0,0,0,6.12,1.54,13.68,13.68,0,0,0,9.62-4q2.47-2.67,3.18-8.66a127.57,127.57,0,0,0,.7-14.6c0-4.41-.05-7.89-.13-10.43s-.32-4.09-.67-4.67c-.05-.18-.36-.33-.94-.44a12.62,12.62,0,0,0-2-.2q-1.14,0-2.28,0c-.75,0-1.31,0-1.67.06a.53.53,0,0,1-.67-.36,2.82,2.82,0,0,1-.13-.84,1.17,1.17,0,0,1,.24-.67,1.23,1.23,0,0,1,.56-.46q2.94.06,6.39.26c2.29.14,4.4.2,6.31.2,1.56,0,3,0,4.45-.1s2.84-.14,4.31-.23q.6.13.6.93c0,.58-.2.92-.6,1a4.72,4.72,0,0,1-1.44.06c-.56,0-1.13-.06-1.7-.06a2,2,0,0,0-1.41.47,16,16,0,0,0-.67,3.17q-.33,2.37-.56,5.88c-.16,2.34-.29,5-.41,8s-.16,6.23-.16,9.66q0,5.61.1,9.12a54.85,54.85,0,0,0,.37,5.55,11.06,11.06,0,0,0,.66,2.91,2.52,2.52,0,0,0,1,1.2c.49.22,1,.42,1.43.6a4.58,4.58,0,0,0,1.64.27l.87,0c.31,0,.47.07.47.3,0,.84-.6,1.27-1.81,1.27a7.57,7.57,0,0,1-3.67-.87A6,6,0,0,1,315,63.72l-1.44.16c-.6.07-1.21.13-1.84.17l-1.73.13c-.54,0-.92.07-1.14.07a3,3,0,0,1-.87-.1c-.22-.07-.39-.29-.5-.67a8,8,0,0,1-.23-1.7c0-.76-.07-1.83-.07-3.21A22.72,22.72,0,0,1,291,64.72a24.73,24.73,0,0,1-7.95-1.64A18.84,18.84,0,0,1,276.69,59a18.37,18.37,0,0,1-4.24-6.58A24.42,24.42,0,0,1,271,43.27a23.81,23.81,0,0,1,1.34-7.19,46.91,46.91,0,0,1,3-7.12A51.39,51.39,0,0,1,279,23a23.41,23.41,0,0,1,3.08-3.67c-1.34,0-2.67.1-4,.16,0,0-1.36.1-3.58.41-1.69.23-2.49.41-3.21,1a3.51,3.51,0,0,0-.86,1.13c0,.09-.12.13-.34.13a.67.67,0,0,1-.33-.07c0-.48,0-1,0-1.43s.08-1,.17-1.64.17-1.08.23-1.5a5.16,5.16,0,0,1,.44-1.37c.17-.45.41-.68.7-.71a5.48,5.48,0,0,1,1.17.1l2.07.21c1,.09,2.07.16,3.27.23l3.68.2c1.25.07,2.34.1,3.28.1s1.7,0,2.17-.07l2-.2Z"/><path class="cls-1" d="M317.46,67.94c.49,0,1,0,1.54,0a5.74,5.74,0,0,0,1.28-.09,1.77,1.77,0,0,0,.82-.46,3.46,3.46,0,0,0,.68-1.3,20,20,0,0,0,.61-2.71c.2-1.18.39-2.74.56-4.69s.36-4.38.56-7.27.42-6.38.64-10.47q.27-5,.32-8.35c0-2.23,0-4-.11-5.4a10.17,10.17,0,0,0-.54-2.94c-.26-.59-.61-.9-1.06-.92-.22,0-.52,0-.9,0l-1.17,0-1.1,0a6.25,6.25,0,0,1-.64,0c-.09,0-.15-.1-.18-.28a1.93,1.93,0,0,1,0-.53,4.19,4.19,0,0,1,.1-.67.42.42,0,0,1,.49-.37l5.94.32c1.91.1,3.49.15,4.75.12a28.59,28.59,0,0,0,3.56-.27c.67-.1.95.14.83.71-.06.27-.13.71-.21,1.33s-.17,1.29-.27,2-.2,1.39-.28,2-.13,1.12-.15,1.43A16.22,16.22,0,0,1,336.25,27a28.36,28.36,0,0,1,4.45-2.3,34,34,0,0,1,5.52-1.78,20.85,20.85,0,0,1,6-.54,25.31,25.31,0,0,1,7.35,1.43,16.61,16.61,0,0,1,5.68,3.39,13.92,13.92,0,0,1,3.52,5.35,18,18,0,0,1,1,7.38,31.49,31.49,0,0,1-.84,5.61c-.46,1.91-1,3.82-1.65,5.7s-1.32,3.71-2,5.48-1.39,3.4-2,4.91-1.14,2.85-1.56,4a11,11,0,0,0-.69,2.77,1.34,1.34,0,0,0,.64,1.21,5,5,0,0,0,2.41.57,13.87,13.87,0,0,0,1.57,0,2.24,2.24,0,0,0,1.13-.34c.18-.08.35,0,.52.3a.83.83,0,0,1,.1.47,2,2,0,0,1-.41.92,1,1,0,0,1-.87.55L363.69,72q-1.8-.1-3.9-.18l-4.14-.19-3.11-.17q-1-.06-1-.72a1.19,1.19,0,0,1,.09-.5.31.31,0,0,1,.24-.12,3.21,3.21,0,0,0,.41-.11,2.49,2.49,0,0,0,.66-.47,16.08,16.08,0,0,0,1.74-3.69,54.07,54.07,0,0,0,1.77-6.09q.83-3.51,1.49-7.62a79,79,0,0,0,.88-8.25,26.29,26.29,0,0,0-.58-7.66,16.74,16.74,0,0,0-2.44-5.62A11.53,11.53,0,0,0,352,27.08a10.91,10.91,0,0,0-4.74-1.36,13.23,13.23,0,0,0-4.55.59,16.25,16.25,0,0,0-4.36,2,16.76,16.76,0,0,0-3.56,3.15,9.84,9.84,0,0,0-2.05,3.87,25.63,25.63,0,0,0-.51,3.26c-.17,1.55-.34,3.35-.49,5.39s-.31,4.2-.45,6.47-.28,4.42-.39,6.47c-.07,1.29-.12,2.53-.13,3.71s0,2.25,0,3.21.08,1.78.14,2.45a5.2,5.2,0,0,0,.19,1.29,1.89,1.89,0,0,0,.56.86,4.25,4.25,0,0,0,1.85.34,6.78,6.78,0,0,0,1,0,5.24,5.24,0,0,1,.91,0,.58.58,0,0,1,.58.4,2,2,0,0,1,.1.64.79.79,0,0,1-.26.39.69.69,0,0,1-.58.23l-1.37-.1q-1-.09-2.16-.15c-.8,0-1.59-.1-2.37-.17s-1.39-.11-1.83-.13c-1.16-.06-2.35-.12-3.58-.16l-3.44-.12c-1.07,0-2-.06-2.84-.06s-1.37,0-1.64,0-.39-.2-.37-.56a1.63,1.63,0,0,1,.27-.75c.17-.28.37-.42.59-.4Z"/><path class="cls-1" d="M39.6,53a23.16,23.16,0,0,1-2.67,2.54,28.77,28.77,0,0,1-3.85,2.64,26.5,26.5,0,0,1-4.71,2.1,16.31,16.31,0,0,1-5.24.86,30.59,30.59,0,0,1-8.92-1.22,19.38,19.38,0,0,1-6.85-3.6,16.17,16.17,0,0,1-4.42-6A20.52,20.52,0,0,1,1.37,42a32.74,32.74,0,0,1,.82-7.27,50.58,50.58,0,0,1,2-6.74,49.65,49.65,0,0,1,2.63-5.85c1-1.78,1.86-3.34,2.72-4.67s1.59-2.39,2.21-3.18,1-1.25,1.14-1.39a23.82,23.82,0,0,0-7.81.43c-1.83.52-3,1.24-3.53,2.14a.93.93,0,0,1-1.14.57c-.48-.14-.57-.76-.29-1.85q.36-1.29.75-2.46A3.15,3.15,0,0,1,2.44,10a3.27,3.27,0,0,1,.93-.43A6.78,6.78,0,0,1,4.62,9.3c.5,0,1.1-.07,1.82-.07H9.15q3.14,0,5.13,0c1.33,0,2.66-.11,4-.25a.92.92,0,0,1,.07.46V10a8.08,8.08,0,0,0-2.25,3.13,42.6,42.6,0,0,0-2.42,6.28,63,63,0,0,0-2,8.67,66.26,66.26,0,0,0-.78,10.45,23.89,23.89,0,0,0,1.36,8.59,15.83,15.83,0,0,0,3.6,5.74A14,14,0,0,0,21,56.06a16.74,16.74,0,0,0,5.81,1,10.56,10.56,0,0,0,6.1-1.68,13.66,13.66,0,0,0,4-4.06A17.82,17.82,0,0,0,39,46.29a19.46,19.46,0,0,0,.67-4.68q0-9.76.07-15.65t-.07-9.17a25.16,25.16,0,0,0-.42-3.85,3.26,3.26,0,0,0-.86-1.71,1.19,1.19,0,0,0-.82-.21l-1.32,0c-.48,0-1,.07-1.46.14l-1.25.18a1.09,1.09,0,0,1-1-.32,1.28,1.28,0,0,1-.33-.85,1.63,1.63,0,0,1,.25-.86A.78.78,0,0,1,33.11,9q1.5,0,2.64,0L38,9.06l2.25,0c1.44,0,2.22,0,6.46-.15,0,0,.86,0,4.13,0,2.85,0,1,.16,1.66.16.23,0,.44,0,.57.12a1,1,0,0,1-.7,1.45l-1,.25a9.65,9.65,0,0,0-1.07.32,1.07,1.07,0,0,0-.64.46,10.93,10.93,0,0,0-.75,3.57q-.26,2.57-.43,6.06c-.12,2.33-.19,4.88-.21,7.67s-.06,5.57-.11,8.38c0,3.94,0,7.13.07,9.55s.08,4.41.11,6,.06,2.8.1,3.78.08,2,.08,3a6.15,6.15,0,0,1-1,3.07,21.07,21.07,0,0,1-2.71,3.49,40.3,40.3,0,0,1-3.78,3.5,38.06,38.06,0,0,1-4.28,3,29.35,29.35,0,0,1-4.21,2.14,9.65,9.65,0,0,1-3.45.82,47.07,47.07,0,0,1-6.67-.5c-2.31-.34-4.54-.72-6.71-1.14l-6-1.18a24.37,24.37,0,0,0-4.53-.54,10.34,10.34,0,0,0-2.28.25q-1.06.25-1.14.9t-.54.21a1,1,0,0,1-.39-.64,3.13,3.13,0,0,1,1.11-1.86A24.31,24.31,0,0,1,4.3,69a29,29,0,0,1,2.56-1.82,7,7,0,0,1,1.36-.75,41.49,41.49,0,0,1,5.63.82q3.28.69,6.82,1.5t7,1.46a34.7,34.7,0,0,0,6.21.65,5.32,5.32,0,0,0,3.63-1.25,4.89,4.89,0,0,0,1.64-3.32c0-.47.1-1.32.15-2.53s.09-2.51.14-3.89.08-2.71.11-4S39.6,53.62,39.6,53Z"/><path class="cls-1" d="M68,10.62a7.32,7.32,0,0,0-2.53,2.07,21.54,21.54,0,0,0-3,4.6,38.13,38.13,0,0,0-2.57,6.88,35.42,35.42,0,0,0-1.17,8.92,39.84,39.84,0,0,0,1.07,10.23A24.3,24.3,0,0,0,63,51a14.48,14.48,0,0,0,5,4.75,13.24,13.24,0,0,0,6.52,1.64,14.22,14.22,0,0,0,6.31-1.46,14,14,0,0,0,4-2.82q2.64-2.85,3.39-9.24A136.52,136.52,0,0,0,89,28.24q0-7.06-.14-11.13c-.1-2.71-.34-4.37-.72-5,0-.19-.38-.35-1-.46A14,14,0,0,0,85,11.44l-2.43,0a15.32,15.32,0,0,0-1.78.07.59.59,0,0,1-.72-.4,3.11,3.11,0,0,1-.14-.89,1.23,1.23,0,0,1,.25-.71A1.39,1.39,0,0,1,80.8,9c2.09,0,4.36.14,6.81.29s4.69.21,6.74.21c1.66,0,3.24,0,4.74-.11s3-.15,4.6-.25c.43.1.64.43.64,1s-.21,1-.64,1.07a5,5,0,0,1-1.53.07c-.6,0-1.2-.07-1.82-.07a2.21,2.21,0,0,0-1.5.5,16.48,16.48,0,0,0-.71,3.39q-.36,2.53-.61,6.28c-.16,2.49-.31,5.34-.43,8.55s-.17,6.65-.17,10.31q0,6,.1,9.74a57.78,57.78,0,0,0,.4,5.92,11.19,11.19,0,0,0,.71,3.1,2.63,2.63,0,0,0,1.07,1.28c.52.24,1,.45,1.53.64a4.9,4.9,0,0,0,1.75.29c.28,0,.59,0,.93,0s.5.09.5.32c0,.91-.65,1.36-1.93,1.36a8.08,8.08,0,0,1-3.92-.93,6.48,6.48,0,0,1-2.29-1.78l-1.53.18c-.64.07-1.29.13-2,.18s-1.28.09-1.85.14-1,.07-1.22.07a3.25,3.25,0,0,1-.92-.11c-.24-.07-.42-.31-.54-.71a8.78,8.78,0,0,1-.25-1.82c0-.81-.07-1.95-.07-3.42a24.27,24.27,0,0,1-17.19,6.56,26.63,26.63,0,0,1-8.49-1.75,20.16,20.16,0,0,1-6.81-4.35,19.79,19.79,0,0,1-4.53-7,26.15,26.15,0,0,1-1.57-9.78,25.8,25.8,0,0,1,1.43-7.66A50.36,50.36,0,0,1,53.52,23a55.76,55.76,0,0,1,3.88-6.35,25.61,25.61,0,0,1,3.28-3.92c-1.42.05-2.84.11-4.24.18a27.8,27.8,0,0,0-3.82.43,12.7,12.7,0,0,0-2.88.85,2.48,2.48,0,0,0-1.47,1.46c0,.1-.12.15-.35.15a.92.92,0,0,1-.36-.07c0-.53,0-1,0-1.54s.08-1.08.17-1.74.18-1.16.25-1.61c.18-1.12.31-1.33.47-1.46a.88.88,0,0,1,.42-.19A9,9,0,0,1,50.05,9a60.27,60.27,0,0,1,6.14.25l3.92.21c1.33.08,2.5.11,3.5.11s1.82,0,2.32-.07L68,9.27Z"/><path class="cls-1" d="M239.85,68.86a55.5,55.5,0,0,1-17.16,12c-12.24,5.39-23.68,4.89-31.79,4.53-2.73-.12-8.4-.85-19.74-2.31-10.53-1.36-14.1-2-20.54-1.91a94.26,94.26,0,0,0-15.06,1.68c-11.39,1.89-12.26,3.33-20.89,4.32a90.52,90.52,0,0,1-16.27.32c-6.27-.43-9-1.44-15.87-2.49-13.79-2.08-20.68-3.12-28-2.88-5.88.19-11.59,1.5-23,4.1C14.29,90.15,4.37,93.7,4.16,93.1s9.18-4.53,18.24-7.77c7.52-2.68,11.29-4,16.48-5.12a100.38,100.38,0,0,1,27.8-1.88c14.3,1,16.48,4,33.81,5,6.24.37,9.71.68,14.71,0,9.31-1.18,15.49-4.57,25.83-6.37a65.9,65.9,0,0,1,19.4-1c7.57.82,8,2.38,17.69,4a105.89,105.89,0,0,0,20.78,1.41c7.53-.14,13.27-.25,20.38-2.22A59.89,59.89,0,0,0,239.85,68.86Z"/><path class="cls-1" d="M239.85,68.86A56.34,56.34,0,0,1,228,78.28a53.82,53.82,0,0,1-14,5.79,65.64,65.64,0,0,1-15.1,1.87c-2.54,0-5.08,0-7.61-.11s-5.07-.41-7.59-.68L168.58,83.3a147.83,147.83,0,0,0-15-1.5,76.22,76.22,0,0,0-15,1.26c-2.49.42-5,.83-7.44,1.35s-4.88,1.13-7.33,1.8a67,67,0,0,1-15.15,2.25c-2.55.11-5.1.11-7.66,0a70.55,70.55,0,0,1-7.65-.68c-2.54-.39-5-.93-7.49-1.37s-5-.79-7.47-1.17c-5-.73-10-1.49-15-1.94a59,59,0,0,0-14.91.31c-4.94.78-9.86,2-14.8,3.08S23.84,89,19,90.32q-3.66,1-7.31,2L8,93.36l-1.86.49-1,.22c-.18,0-.36.07-.58.09h-.2a1.11,1.11,0,0,1-.32,0s-.45,0-.81-.62a1.09,1.09,0,0,1,.15-1.1A2.42,2.42,0,0,1,4,91.87c.17-.1.31-.19.47-.27s.59-.32.88-.46c.58-.29,1.16-.56,1.75-.82,1.17-.53,2.34-1,3.51-1.51,2.35-1,4.72-1.9,7.09-2.8s4.78-1.74,7.16-2.59,4.78-1.68,7.23-2.43a95.9,95.9,0,0,1,30.3-3.76,88.58,88.58,0,0,1,15.22,1.64c2.51.5,5,1.11,7.43,1.63s4.92.94,7.41,1.27,5,.54,7.5.71,5,.33,7.55.43a49,49,0,0,0,14.79-1.69c4.85-1.25,9.66-3,14.65-4.07,2.49-.56,5-1,7.52-1.35a69.39,69.39,0,0,1,7.62-.71,55.94,55.94,0,0,1,7.66.26,37.61,37.61,0,0,1,7.56,1.42c2.44.75,4.8,1.52,7.26,2s4.94,1,7.43,1.32a105.51,105.51,0,0,0,15.08,1,129.17,129.17,0,0,0,15.12-.67A58.88,58.88,0,0,0,239.85,68.86Zm0,0a59.07,59.07,0,0,1-27.57,12.07,128.41,128.41,0,0,1-15.17.92,105.87,105.87,0,0,1-15.21-.75c-2.53-.31-5-.72-7.53-1.25s-5-1.29-7.36-2a36.43,36.43,0,0,0-7.35-1.32,56.89,56.89,0,0,0-7.5-.18,69.93,69.93,0,0,0-7.48.76c-2.48.4-5,.82-7.4,1.4-4.89,1.13-9.63,2.86-14.57,4.19a50.8,50.8,0,0,1-15.23,1.88c-2.56-.07-5.08-.25-7.61-.4s-5.08-.38-7.61-.7-5.06-.75-7.55-1.27-4.95-1.12-7.41-1.6A87.84,87.84,0,0,0,62.37,79a94.4,94.4,0,0,0-29.69,3.77c-2.39.74-4.77,1.59-7.15,2.43s-4.75,1.7-7.11,2.6-4.7,1.82-7,2.79c-1.16.49-2.31,1-3.45,1.5-.57.26-1.14.52-1.69.79l-.8.42-.35.21c-.09,0-.26.21-.11,0a1,1,0,0,0,.08-.9c-.32-.54-.67-.52-.61-.52h0l.36,0c.28-.06.58-.12.88-.2l1.81-.47,3.65-1c2.44-.68,4.88-1.35,7.34-2,4.9-1.29,9.84-2.48,14.78-3.59s9.87-2.27,14.94-3a61.25,61.25,0,0,1,15.36-.29c5.08.48,10.09,1.26,15.09,2,2.5.38,5,.74,7.53,1.2s5,1,7.43,1.38a83.2,83.2,0,0,0,15,.69,65.06,65.06,0,0,0,14.84-2.06c2.43-.64,4.92-1.26,7.42-1.75s5-.9,7.51-1.29a78.36,78.36,0,0,1,15.23-1.15,151.87,151.87,0,0,1,15.15,1.65l15.05,2c2.5.31,5,.66,7.51.79s5,.24,7.56.24a64.53,64.53,0,0,0,15-1.62,53,53,0,0,0,14-5.52A55.8,55.8,0,0,0,239.85,68.86Z"/></g></g></svg>