<svg xmlns="http://www.w3.org/2000/svg" viewBox="0 0 747.62 353.18"><defs><style>.cls-1{fill:#262626;}</style></defs><g id="Layer_2" data-name="Layer 2"><g id="Layer_2-2" data-name="Layer 2"><path class="cls-1" d="M139.93,167.48a75.38,75.38,0,0,1-7.41,9.05,85.92,85.92,0,0,1-11.06,9.86,84,84,0,0,1-14,8.52,51.52,51.52,0,0,1-16.16,4.8,97.36,97.36,0,0,1-28.56-.23,60.91,60.91,0,0,1-23-8.58,51.06,51.06,0,0,1-16.32-17q-6.37-10.59-8.26-25.42a102.05,102.05,0,0,1-.35-23.23,159.28,159.28,0,0,1,3.69-22,162,162,0,0,1,6-19.48q3.41-9,6.65-15.8t5.69-10.88c1.62-2.72,2.64-4.33,3-4.84q-16.1.92-24.42,4.49T5.16,64.88c-.68,1.76-1.81,2.51-3.36,2.25S-.3,65,.16,61.41q.6-4.19,1.37-8A10.1,10.1,0,0,1,5.62,47,10.18,10.18,0,0,1,8.37,45.3a21.85,21.85,0,0,1,3.84-1.18c1.56-.35,3.45-.67,5.7-1l8.53-1.09q9.89-1.26,16.16-2.17t12.47-2.4c.17.13.31.61.42,1.43l.21,1.69Q52.81,43,49.89,51.4a135.64,135.64,0,0,0-5.11,20.74,199.57,199.57,0,0,0-2.69,28.08,209.12,209.12,0,0,0,1.73,33.21q2,15.94,7.73,26.52A50.59,50.59,0,0,0,65.2,176.58a44.92,44.92,0,0,0,17.25,8.18,53.11,53.11,0,0,0,18.72.91q11.44-1.46,18.52-7.73a43.28,43.28,0,0,0,10.83-14.39,55.65,55.65,0,0,0,4.81-16.82,61.56,61.56,0,0,0,.26-15q-3.93-30.77-6.08-49.32T125.6,53.6a78.33,78.33,0,0,0-2.89-12q-1.39-3.7-3.39-5a3.68,3.68,0,0,0-2.67-.35c-1.27.17-2.65.38-4.14.65s-3,.61-4.54,1L104.11,39a3.52,3.52,0,0,1-3.39-.6,4.14,4.14,0,0,1-1.35-2.56,4.91,4.91,0,0,1,.44-2.8,2.46,2.46,0,0,1,2-1.51c3.14-.4,5.91-.71,8.32-1l.75-.07,1.18-.13c13.69-1.54,21.14-3.32,42-6.86l.09,0,.38-.05c2.81-.29,5.32,1.27,7.08,2.8,1.54.72,3,1.25,3,1.83,0,.16-.17.29-.36.5a3,3,0,0,1-1.2.72q-1.42.52-3.15,1.2A35.23,35.23,0,0,0,156.62,32a3.41,3.41,0,0,0-1.84,1.71q-1.17,3.36-.92,11.53T155,64.45q.84,11.08,2.41,24.23t3,26.43q2.38,18.64,4.07,30.07t2.74,18.71c.69,4.85,1.31,8.81,1.85,11.85s1,6.15,1.42,9.29q.54,4.28-2,10.08a67.4,67.4,0,0,1-7.13,12.09A127,127,0,0,1,138.57,231a92,92,0,0,1-12.39,8.43,30.54,30.54,0,0,1-10.56,4,148.47,148.47,0,0,1-21.2,1.11q-11.1-.18-21.57-.9t-19.34-1.29a78.56,78.56,0,0,0-14.47.13A32.12,32.12,0,0,0,32,244.16q-3.27,1.22-3.23,3.27c-.15,1.23-.68,1.53-1.6.88a3,3,0,0,1-1.49-1.86c-.19-1.5.71-3.59,2.73-6.28a77.4,77.4,0,0,1,6.86-7.95,85.59,85.59,0,0,1,7.35-6.76,23.17,23.17,0,0,1,4-2.91,128.35,128.35,0,0,1,18.07.32q10.59.81,22,2t22.71,1.78a111.1,111.1,0,0,0,19.79-.47,17,17,0,0,0,11-5.4,15.51,15.51,0,0,0,3.83-11.1c0-1.52-.23-4.19-.57-8s-.71-7.94-1.11-12.3-.83-8.56-1.27-12.61S140.19,169.58,139.93,167.48Z"/><path class="cls-1" d="M282.1,171.59A18.56,18.56,0,0,1,281,166c-.27-2.48-.52-6-.75-10.52a77.3,77.3,0,0,1-20.9,15.25q-12.54,6.47-31,7.62a81.91,81.91,0,0,1-26.38-4A62,62,0,0,1,180.41,162a60.32,60.32,0,0,1-15-20.91q-5.7-12.69-6.35-29.82a78.78,78.78,0,0,1,3.19-23.81A156.3,156.3,0,0,1,171,63.59a168.71,168.71,0,0,1,11-20.13q5.7-8.88,9.48-12.58-6.57.56-13,1.21A88.32,88.32,0,0,0,166.77,34,39,39,0,0,0,158,37.08c-2.36,1.22-3.79,2.8-4.27,4.73,0,.29-.35.46-1.08.49a2.37,2.37,0,0,1-1.11-.16c-.08-1.61-.12-3.18-.13-4.72s.09-3.34.28-5.41c.13-1.25.24-2.39.35-3.42,0-.18,0-.31.05-.41l0-.18V28a15.59,15.59,0,0,1,.47-2.49h0a3.56,3.56,0,0,1,.83-1.55l.64-.4.46-.06a469.2,469.2,0,0,1,59-4.47l.21,4.17c-2,.83-4.5,3.09-7.47,6.76a65.77,65.77,0,0,0-8.5,14.62A114.89,114.89,0,0,0,191,66.1a108.34,108.34,0,0,0-2.23,27.62A122.3,122.3,0,0,0,193.61,125q4.21,13.76,11.06,23a44.59,44.59,0,0,0,16.21,13.8,40.76,40.76,0,0,0,20.34,4,43.46,43.46,0,0,0,19.19-5.48q8-4.69,11.74-9.29,7.67-9.18,9-28.94A421.45,421.45,0,0,0,281,74.07q-1.1-21.72-2.17-34.2t-3-15.25c-.17-.58-1.22-1-3.14-1.27a42,42,0,0,0-6.62-.33c-2.49.06-5,.14-7.46.27a48.75,48.75,0,0,0-5.48.5,1.78,1.78,0,0,1-2.26-1.1,9.13,9.13,0,0,1-.57-2.72,3.82,3.82,0,0,1,.65-2.23,4.16,4.16,0,0,1,1.79-1.63q9.66-.27,21-.19t20.77-.39q7.68-.39,14.58-1.07T323.22,13c1.33.23,2,1.22,2.13,3s-.5,3-1.81,3.39a16.16,16.16,0,0,1-4.7.46c-1.84-.05-3.71,0-5.61.06a6.79,6.79,0,0,0-4.53,1.77c-.64,1.79-1.2,5.31-1.67,10.53s-.76,11.7-.88,19.41-.12,16.51,0,26.4.49,20.47,1.06,31.73q.93,18.43,1.85,29.94t2.13,18.15c.64,3.5.53,6.52,2.67,9.44a16,16,0,0,0,8.31,5.51,16.3,16.3,0,0,0,5.42.61c.88,0,1.83-.13,2.85-.26a1.5,1.5,0,0,1,1.37.31,1,1,0,0,1,.22.6c.17,2.31.69,2.73.28,3.37s-1.51.81-3.31,1c-.39,0-.88,0-1.85.05s-1.95,0-3,0a60.87,60.87,0,0,1-9.64-1c-.31-.06-.84-.17-1.6-.35-10.69-2.48-16.75-6.57-25.05-5.36a22.43,22.43,0,0,0-2.59.54l-.34.11a1.36,1.36,0,0,0-.25.08A12.09,12.09,0,0,1,282.1,171.59Z"/><path class="cls-1" d="M378.35,131.26c0,7.26.14,13.18.43,20.07a69.78,69.78,0,0,0,2.35,16.76,20.86,20.86,0,0,0,8.64,2.88q4.8.53,9.07.74a44.27,44.27,0,0,1,7.15.86c1.92.43,2.88,1.35,2.88,2.77a2.18,2.18,0,0,1-1.07,1.82,6.14,6.14,0,0,1-3.41.74q-6.19.21-16.86-.53a232.66,232.66,0,0,0-24.33-.75c-11.73.2-31,1.57-34.18,1.73-1.64.08-3.66.08-3.69.08h-.11a5.61,5.61,0,0,1-.84,0c-.31-.26,1.13-4.14,4.26-5.07a16.21,16.21,0,0,1,1.82-.25c.66-.08,1.9-.26,4.57-.77,3.54-.67,5.3-1,7.47-1.57,2.35-.61,4.37-1.25,6-1.81q1.27-4.69,2.13-9.6t1.49-12.27q.64-7.37,1-18.36t.32-28.27q0-15.8-.21-26.79t-.75-18.35q-.53-7.36-1.06-11.63a50.73,50.73,0,0,0-1.18-6.62,16,16,0,0,0-7.25-2.45c-3-.35-5.91-.64-8.75-.85a61,61,0,0,1-7.37-1c-2.06-.43-3.09-1.42-3.09-3q0-2.78,3.41-2.78,3.86,0,13.13,1c2.69.28,26.32-.29,33-2.66,8-2.86,8.53-3.11,10.88-3.84q6.19-1.92,13.13-3.42a64.61,64.61,0,0,1,13.55-1.49A81.87,81.87,0,0,1,431.06,19a52.25,52.25,0,0,1,16.76,7.36,38.05,38.05,0,0,1,11.41,12.17c3.85,6.53,4.11,13,4.27,16.86a35.79,35.79,0,0,1-1.3,12.37,34.86,34.86,0,0,1-2.44,6c-2.48,4.81-5.53,7.74-11.62,13.59a87.65,87.65,0,0,1-9.79,8.3q-2.3,1.64-4.73,3.12a104.11,104.11,0,0,1-14.72,7.57,72.78,72.78,0,0,1,16.54,1.82,58.57,58.57,0,0,1,14.08,5.12,36.4,36.4,0,0,1,10.46,8A23.2,23.2,0,0,1,465.42,132a10.86,10.86,0,0,1-1.83,6.61c3.29,6.77,6.33,12.33,8.77,16.55,3.54,6.13,5.93,9.67,7,11.21q2.28,3.3,4.75,6.5a72.4,72.4,0,0,0,14.51,14.3,29.42,29.42,0,0,0,17.82,5.87c1.28,0,2.73-.08,4.37-.22a24.56,24.56,0,0,0,4.7-.85,15,15,0,0,0,4.16-1.92,7.31,7.31,0,0,0,2.77-3.42,2.89,2.89,0,0,1,1.71-.64,1.35,1.35,0,0,1,1.39,1.07c.21.71.39,1.42.53,2.13q-4.27,9.61-21.13,9.61A48.24,48.24,0,0,1,498.61,196a72.48,72.48,0,0,1-14.94-7.36A100.46,100.46,0,0,1,470,178.12q-6.51-6-12.27-12.38Q453.47,161,447.82,154t-12.06-14.4a190.79,190.79,0,0,0-13.34-13.87,64.85,64.85,0,0,0-13.76-10.14,30.46,30.46,0,0,0-7.26-2.24q-4-.75-7.79-1.07t-6.94-.32h-4.9a17.89,17.89,0,0,0-2.14.11,11.15,11.15,0,0,1-1.28.1Zm1.92-79.69c-.13,1.71-.23,3.22-.44,6.24-.25,3.64-.52,7.55-.62,9.66q-.43,8.64-.64,17.92T378.35,103q2.13,1.71,8.22,1.92t13.12.21A42,42,0,0,0,410,104.06a21.49,21.49,0,0,0,7.79-3.84,24.11,24.11,0,0,0,4.8-4.91,53,53,0,0,0,5.13-8.1,57.77,57.77,0,0,0,4.16-10.57,44.75,44.75,0,0,0,1.7-12.48A63.55,63.55,0,0,0,431.49,47a45.56,45.56,0,0,0-5.76-13,26.37,26.37,0,0,0-8.54-8.32,20.32,20.32,0,0,0-10.45-2.88A22.75,22.75,0,0,0,400,23.93,42,42,0,0,0,392.65,27a24.7,24.7,0,0,0-6.4,4.38,23.33,23.33,0,0,0-2.93,3.65C381.81,37.44,381.17,39.93,380.27,51.57Z"/><path class="cls-1" d="M163.14,293.49a3.48,3.48,0,0,1-.91,0c-.3,0-.55-.29-.74-.72a8.72,8.72,0,0,1,.42-1.61,11.27,11.27,0,0,1,1.63-3.07,13.89,13.89,0,0,1,3.09-3.08,9.2,9.2,0,0,1,4.79-1.67,8.7,8.7,0,0,1,6,1.36,13.32,13.32,0,0,1,4,4.92,29,29,0,0,1,2.48,7.52q.83,4.31,1.28,9.21a22.64,22.64,0,0,0,6,10.46,49.31,49.31,0,0,0,11.61,9.06,63.61,63.61,0,0,0,14.59,6.09,45.11,45.11,0,0,0,15,1.79q17-1.1,24.07-9.48t6-20.43q-.92-10-5.27-15.92a29.22,29.22,0,0,0-11-9.11A62.25,62.25,0,0,0,231.23,274q-8.23-1.6-16.77-2.86t-16.78-3a54.55,54.55,0,0,1-15-5.38,31.64,31.64,0,0,1-11.14-10.11q-4.4-6.45-5.37-17.15a43.58,43.58,0,0,1,2.8-19.91,49.64,49.64,0,0,1,11.56-17.45,62.82,62.82,0,0,1,19.6-13c11.61-5.22,21.61-6.17,28.28-6.74a113,113,0,0,1,24.31.73,138.44,138.44,0,0,1,16.44,3q1-1.89,2.08-4.35a30,30,0,0,1,2.61-4.61,20.52,20.52,0,0,1,3.37-3.79c.32-.28.19-.13,1.21-.86,3-2.16,3.52-2.84,4.15-2.62s.49,1.08,1.76,2c.37.27.47.25.77.5a3.49,3.49,0,0,1,1.44,2.23,2.28,2.28,0,0,1-.72,1.27,3.07,3.07,0,0,1-1.14.47,13.79,13.79,0,0,0-2,.88,19.8,19.8,0,0,0-1.75,1,14.52,14.52,0,0,0-1.38,1c-4.53,3.78-6.9,16.53-6.9,16.53a101.4,101.4,0,0,0-2.27,14.84,139,139,0,0,0-.06,17.61,1.64,1.64,0,0,1-1.06.77,8.07,8.07,0,0,1-2,.4,8.84,8.84,0,0,1-2.47,0,40.63,40.63,0,0,0-5.25-13.23,44.3,44.3,0,0,0-10.38-11.75,46.49,46.49,0,0,0-15.33-7.93,50.54,50.54,0,0,0-19.81-1.8,36,36,0,0,0-11.86,3,27.26,27.26,0,0,0-8.56,5.95,22.27,22.27,0,0,0-4.92,7.74,18.78,18.78,0,0,0-1.17,8.2q.85,9.34,9.12,16.35t24,9.4q9.8,1.59,20.43,3.65a78.61,78.61,0,0,1,19.57,6.43,47.22,47.22,0,0,1,15.21,11.65q6.27,7.29,7.36,19.33a49.61,49.61,0,0,1-3.41,23.11,67.13,67.13,0,0,1-12.64,20.35,71.48,71.48,0,0,1-19.09,15,58.21,58.21,0,0,1-22.73,7,127,127,0,0,1-17.93.39q-8.81-.44-16.31-1.44a132,132,0,0,1-13.24-2.39,71.48,71.48,0,0,1-8.54-2.49q1.68-3.73,3.43-7.95t3.25-8.83a65.2,65.2,0,0,0,2.28-9.53,41.36,41.36,0,0,0,.31-10.24q-.71-7.8-3.41-11.6c-1.81-2.53-3.75-3.71-5.83-3.52a8.71,8.71,0,0,0-3,1.18A17.82,17.82,0,0,0,163.14,293.49Z"/><path class="cls-1" d="M338,190.31q-3,1.06-7.54,6.15a63.85,63.85,0,0,0-8.91,13.69,111.07,111.07,0,0,0-7.63,20.47,104.69,104.69,0,0,0-3.51,26.52,118.44,118.44,0,0,0,3.19,30.44,72.55,72.55,0,0,0,9.54,22.7,42.91,42.91,0,0,0,15,14.11,39.3,39.3,0,0,0,19.41,4.88,42,42,0,0,0,18.78-4.35q7.95-4.14,11.77-8.38,7.85-8.48,10.08-27.47a405.82,405.82,0,0,0,2.23-46.36q0-21-.43-33.09c-.28-8.07-1-13-2.12-14.85q-.21-.86-3-1.38a40.6,40.6,0,0,0-6.36-.64q-3.62-.1-7.21-.11a47.28,47.28,0,0,0-5.31.22,1.71,1.71,0,0,1-2.12-1.17,8.78,8.78,0,0,1-.43-2.65,3.65,3.65,0,0,1,.75-2.12,4,4,0,0,1,1.8-1.49q9.33.21,20.26.85t20.05.64q7.43,0,14.11-.32c4.45-.21,9-.46,13.68-.75,1.28.29,1.91,1.28,1.91,3s-.63,2.9-1.91,3.18a15.68,15.68,0,0,1-4.56.21c-1.77-.14-3.57-.21-5.41-.21a6.5,6.5,0,0,0-4.45,1.48q-1.07,2.55-2.13,10.08t-1.8,18.67q-.75,11.13-1.27,25.46t-.53,30.65q0,17.83.32,29t1.16,17.61a35.43,35.43,0,0,0,2.12,9.23,8,8,0,0,0,3.19,3.82c1.55.71,3.07,1.34,4.56,1.91a14.64,14.64,0,0,0,5.2.85c.84,0,1.76,0,2.75-.11s1.49.25,1.49,1c0,2.68-1.91,4-5.73,4a24.13,24.13,0,0,1-11.67-2.76q-5.08-2.76-6.79-5.3l-4.56.53c-1.91.21-3.85.38-5.83.53s-3.82.28-5.52.42-2.9.21-3.6.21a9.49,9.49,0,0,1-2.76-.32c-.71-.21-1.24-.92-1.59-2.12a25.3,25.3,0,0,1-.75-5.41q-.21-3.6-.21-10.18a74.51,74.51,0,0,1-20.9,13.68q-12.4,5.63-30.23,5.84a79.14,79.14,0,0,1-25.24-5.2,59.87,59.87,0,0,1-20.27-12.94,58.32,58.32,0,0,1-13.47-20.9q-4.87-12.51-4.66-29.06a75.84,75.84,0,0,1,4.24-22.81,149.73,149.73,0,0,1,9.65-22.59,164.48,164.48,0,0,1,11.56-18.89q5.94-8.26,9.76-11.67c-4.24.15-8.45.32-12.62.54a84.48,84.48,0,0,0-11.35,1.27,37.29,37.29,0,0,0-8.59,2.54c-2.34,1.06-3.79,2.52-4.35,4.35,0,.29-.36.43-1.06.43a2.35,2.35,0,0,1-1.06-.21c0-1.56,0-3.08.1-4.57s.25-3.21.53-5.19.53-3.43.75-4.78a16.89,16.89,0,0,1,1.37-4.35c.57-1.41,1.31-2.15,2.23-2.22a15.38,15.38,0,0,1,3.71.31q1.92.22,6.58.64c3.11.29,6.58.53,10.4.74s7.71.43,11.67.64,7.42.32,10.39.32,5.41-.07,6.9-.21,3.57-.36,6.26-.64Z"/><path class="cls-1" d="M430.22,347.63c1.56,0,3.18-.06,4.88-.15a17.75,17.75,0,0,0,4-.57,5.39,5.39,0,0,0,2.53-1.61,10.84,10.84,0,0,0,1.87-4.26,60.69,60.69,0,0,0,1.41-8.71q.58-5.62.82-15t.32-23.12q.09-13.8-.08-33.31-.13-15.92-.66-26.52t-1.42-17.06c-.48-3.39.05-6.83-2.31-9.21a10.42,10.42,0,0,0-6.39-2.6c-2.33-.15-7.78.3-9.76.28,0,0-.81,0-.84-.18s.52-.16.73-.54-.22-.75-.23-1.7a13.35,13.35,0,0,1,.2-2.12,1.52,1.52,0,0,1,.47-1,1.27,1.27,0,0,1,.27-.17l19.61-.31q9.12-.09,15.06-.56A90.36,90.36,0,0,0,472,197.68c2.12-.44,3,.26,2.78,2.1-.14.85-.27,2.27-.39,4.25s-.28,4.1-.47,6.37-.36,4.42-.48,6.47-.18,3.58-.17,4.56a50.72,50.72,0,0,1,8.32-7.28A91.49,91.49,0,0,1,495.16,206a112.13,112.13,0,0,1,17.13-6.73,66.51,66.51,0,0,1,18.85-2.92,80.43,80.43,0,0,1,23.58,3.08A52.42,52.42,0,0,1,573.37,209a44.15,44.15,0,0,1,12.24,16.23Q590,235,590.16,248.4a98.86,98.86,0,0,1-1.54,17.94q-1.62,9.26-4.08,18.39t-5.36,17.77l-5.37,16q-2.47,7.34-4.13,13.08a34.13,34.13,0,0,0-1.62,8.93,4.22,4.22,0,0,0,2.26,3.69c1.5.91,4.08,1.34,7.76,1.31a47.47,47.47,0,0,0,5-.26,7.13,7.13,0,0,0,3.49-1.3c.56-.29,1.13,0,1.71.83a2.71,2.71,0,0,1,.44,1.48,6.49,6.49,0,0,1-1.15,3,3.24,3.24,0,0,1-2.63,1.94l-7.43.06q-5.72.06-12.41.22t-13.15.22l-9.86.09c-2.12,0-3.19-.68-3.2-2.09a3.61,3.61,0,0,1,.19-1.6,1.15,1.15,0,0,1,.74-.43,6.78,6.78,0,0,0,1.27-.43,7.68,7.68,0,0,0,2-1.61q2.31-3.63,4.78-12a176,176,0,0,0,4.38-19.67q1.92-11.25,3.18-24.42a252,252,0,0,0,1.15-26.32,82.92,82.92,0,0,0-3.4-24.16,52.77,52.77,0,0,0-8.85-17.32,36.6,36.6,0,0,0-12.82-10.39,34.55,34.55,0,0,0-15.31-3.36,41.92,41.92,0,0,0-14.3,2.78,52.76,52.76,0,0,0-24,18,30.5,30.5,0,0,0-5.72,12.68,76.45,76.45,0,0,0-1,10.4q-.36,7.44-.49,17.19t-.13,20.58q0,10.83.07,20.58.06,6.17.32,11.77c.17,3.75.42,7.14.73,10.18s.61,5.62.91,7.74a16.48,16.48,0,0,0,.89,4,6.23,6.23,0,0,0,1.93,2.64c.71.49,2.69.71,6,.69a19.85,19.85,0,0,0,3.28-.25,17.34,17.34,0,0,1,2.87-.23,1.81,1.81,0,0,1,1.92,1.15,6.11,6.11,0,0,1,.44,2,2.46,2.46,0,0,1-.73,1.28,2.29,2.29,0,0,1-1.8.86c-.85,0-2.3,0-4.35-.07s-4.35-.06-6.89,0-5.06,0-7.54,0-4.42-.07-5.83-.05c-3.68,0-7.46.09-11.35.2l-10.92.31c-3.4.1-6.4.23-9,.4s-4.34.32-5.19.47-1.28-.56-1.29-1.69a5.31,5.31,0,0,1,.72-2.44c.49-.92,1.08-1.39,1.79-1.4Z"/><path class="cls-1" d="M611.93,2.9A14.88,14.88,0,0,0,606.86,0q-3.08-.27-5.63,3.6a59.77,59.77,0,0,0-4.62,8.46q-2.07,4.59-3.51,8.45t-2.53,3.55a59.5,59.5,0,0,0-5.85-1.51q-4.14-.91-9.58-1.95t-11.58-1.9q-6.13-.87-11.41-1.33a114,114,0,0,0-34.08,2,79,79,0,0,0-29.73,13A75,75,0,0,0,466.4,57.65q-8.68,15.75-10.67,38.4a81.58,81.58,0,0,0,2.67,30.26,64,64,0,0,0,13.36,24.56,72,72,0,0,0,23.53,17.35q14.25,6.78,33.39,8.46,4.83.42,11.24.65t12.84.24q6.42,0,12.06.17t8.94.45a6.11,6.11,0,0,1,3.51,1.41,3.75,3.75,0,0,1,1.45,2.75,8.13,8.13,0,0,1-.28,1.05c-.17.61-.44,1.62-.54,2-.28,1.21-.6,2.58.06,3.54.35.51,1.11.86,2.64,1.55a4.28,4.28,0,0,0,1,.42,8.94,8.94,0,0,0,3.91-.43,46.06,46.06,0,0,1-.73-9.37q0-5.53.54-11.26a64.19,64.19,0,0,1,2.2-12.44q.91-2.79,1.78-5.16a1.7,1.7,0,0,0-.05-.6,2.39,2.39,0,0,0-1-1.27c-.54-.42-.83-.65-1.28-.65a1.68,1.68,0,0,0-1.14.52,48.83,48.83,0,0,1-5.9,6.5,48,48,0,0,1-9.57,6.81,54.32,54.32,0,0,1-14,5,59.81,59.81,0,0,1-18.47.93,51.2,51.2,0,0,1-18.74-5,44.72,44.72,0,0,1-13.4-10.15A52.38,52.38,0,0,1,497,140.78,79.71,79.71,0,0,1,492,125.37a88.84,88.84,0,0,1-2.06-15.69,110.56,110.56,0,0,1,.26-14.39q3.75.12,12.9.69t24.1,1.89q7.92.69,14.72,1.51a81.7,81.7,0,0,1,12.1,2.28,27.41,27.41,0,0,1,8.54,3.74,8.68,8.68,0,0,1,3.81,5.87,4,4,0,0,0,2.32,2.64c1.33.71,2.22.34,2.64-1.1a62.11,62.11,0,0,1,1.8-10.48,71.94,71.94,0,0,1,3-9q1.68-4.07,3.07-7.16a52.89,52.89,0,0,0,2-5,3.28,3.28,0,0,0-2.22-1.3,2.44,2.44,0,0,0-2.62.87,16.57,16.57,0,0,1-6.23,2.78,70.74,70.74,0,0,1-10.14,1.89,114.18,114.18,0,0,1-12.7.77q-6.87.06-13.91-.55-3.11-.06-9.25-.7t-12.73-1.45q-6.57-.8-12.14-1.73a55.48,55.48,0,0,1-7.29-1.52A89,89,0,0,1,498.07,58a72.47,72.47,0,0,1,11.15-18.53,49.93,49.93,0,0,1,15.27-12.4A33.06,33.06,0,0,1,543,23.46a50.79,50.79,0,0,1,15.63,3.69A46.64,46.64,0,0,1,570.2,34a38.85,38.85,0,0,1,7.49,8.08,25.11,25.11,0,0,1,3.57,7.3c.34,1.74,1.07,2.82,2.18,3.26a6.55,6.55,0,0,0,1,.22,2.23,2.23,0,0,0,2.65-1.43c1-4.34,2-8.24,3.12-11.69a62.31,62.31,0,0,1,3-7.93,88.06,88.06,0,0,1,7.46-15.64,31.45,31.45,0,0,1,9.4-9.93Q613.35,4.36,611.93,2.9Z"/><path class="cls-1" d="M746.31,106a47,47,0,0,0-9.46-19.51A55.89,55.89,0,0,0,719.3,72.61a86,86,0,0,0-24-8.09,71,71,0,0,0-20.35-.82,118.49,118.49,0,0,0-19.32,3.51A97.11,97.11,0,0,0,639.64,73a54.19,54.19,0,0,0-10.21,5.91c.2-1,.57-2.62,1.13-4.74s1.16-4.35,1.83-6.68,1.26-4.52,1.8-6.57,1-3.51,1.28-4.37c.66-1.87-.16-2.8-2.47-2.77a95.87,95.87,0,0,1-12.09-.65q-6.31-.72-15.88-2.52l-19.8-3.72a1.45,1.45,0,0,0-1.81,1,22.71,22.71,0,0,0-.64,2.18c-.34,1.25-.58,1.33-.46,1.69a1.77,1.77,0,0,0,1,.86l.08,0a7.45,7.45,0,0,0,1.11.25c.82.09,2.79.51,3.48.65l.54.1.74.13c6.6,1.09,8.9,3.15,8.9,3.15,1.81,1.62,2.24,5,1.4,11.62-.76,6-1.14,12.13-2,18.16q-1.65,11.2-4.78,27.9-3.84,20.48-6.78,34.89t-5.11,24.15c-1.16,5.2-2.66,10.32-3.94,15.5a80.25,80.25,0,0,1-3.27,8.83c-1.06,2.39-2.2,4.64-4.26,5.36a7,7,0,0,1-1.51.32,12.19,12.19,0,0,1-4-.75,14.26,14.26,0,0,0-5.51-.78l-2.9-.54a2.28,2.28,0,0,0-2.16,1.09,5.71,5.71,0,0,0-1.26,2.42c-.22,1.18.11,1.86,1,2,.92,0,2.76.21,5.54.57s5.94.85,9.52,1.45l11.5,1.92q6.14,1,11.92,2.13c1.48.28,3.52.69,6.1,1.26s5.21,1.09,7.88,1.59,5.07,1,7.21,1.47,3.65.8,4.54,1a2.46,2.46,0,0,0,2.06-.54c.63-.49,1-.89,1-1.19a6.55,6.55,0,0,0,0-2.19,1.93,1.93,0,0,0-1.77-1.6,17.47,17.47,0,0,0-3-.35,20.06,20.06,0,0,1-3.49-.42q-5.12-1-6.08-1.95a6.61,6.61,0,0,1-1.48-3.16,17.15,17.15,0,0,1-.1-4.39q.18-3.42.63-8.29c.3-3.24.75-6.85,1.34-10.8s1.29-8.09,2.1-12.4q1.92-10.23,4.16-21.56T617,128.15q2.14-10.19,4-17.9a84.63,84.63,0,0,1,3.16-10.69,32.59,32.59,0,0,1,8.61-12.09,56.16,56.16,0,0,1,28.87-13.93,44.75,44.75,0,0,1,15.54,0,37,37,0,0,1,15.34,6.68,39,39,0,0,1,11.28,13.52,56.32,56.32,0,0,1,5.7,20,88.42,88.42,0,0,1-1.43,26A266.93,266.93,0,0,1,701.46,167q-4.05,13.53-8.36,24.92a186.57,186.57,0,0,1-8.65,19.69q-4.32,8.29-7.48,11.61a8.08,8.08,0,0,1-2.43,1.27,7.17,7.17,0,0,1-1.41.2,1.15,1.15,0,0,0-.87.3,3.66,3.66,0,0,0-.53,1.62q-.42,2.23,2.92,2.85L685,231.45q6.79,1.28,13.82,2.47c4.69.81,9,1.58,13,2.34l7.79,1.46c1,.19,2.09-.3,3.15-1.48a6.79,6.79,0,0,0,1.81-2.89,2.83,2.83,0,0,0-.15-1.64c-.43-1-1-1.41-1.61-1.22a7.64,7.64,0,0,1-3.93.64,50.44,50.44,0,0,1-5.27-.76c-3.86-.72-6.47-1.71-7.85-3a4.48,4.48,0,0,1-1.6-4.33,36.16,36.16,0,0,1,3.53-9q2.91-5.67,7-12.85t8.92-15.6q4.8-8.43,9.27-17.5T741,149.7a105.2,105.2,0,0,0,5.31-18.47Q748.94,117.22,746.31,106Z"/></g></g></svg>