<svg xmlns="http://www.w3.org/2000/svg" viewBox="0 0 747.62 353.18"><defs><style>.cls-1{fill:#262626;}</style></defs><g id="Layer_2" data-name="Layer 2"><g id="Layer_2-2" data-name="Layer 2"><path class="cls-1" d="M746.31,106a47,47,0,0,0-9.46-19.51A55.89,55.89,0,0,0,719.3,72.61a86,86,0,0,0-24-8.09,71,71,0,0,0-20.35-.82,118.49,118.49,0,0,0-19.32,3.51A97.11,97.11,0,0,0,639.64,73a54.19,54.19,0,0,0-10.21,5.91c.2-1,.57-2.62,1.13-4.74s1.16-4.35,1.83-6.68,1.26-4.52,1.8-6.57,1-3.51,1.28-4.37c.66-1.87-.16-2.8-2.47-2.77a95.87,95.87,0,0,1-12.09-.65q-6.31-.72-15.88-2.52L588,47.4c.68-2.74,1.4-5.29,2.15-7.62a62.31,62.31,0,0,1,3-7.93,88.06,88.06,0,0,1,7.46-15.64,31.45,31.45,0,0,1,9.4-9.93q3.27-1.92,1.85-3.38A14.88,14.88,0,0,0,606.86,0q-3.08-.27-5.63,3.6a59.77,59.77,0,0,0-4.62,8.46q-2.07,4.59-3.51,8.45t-2.53,3.55a59.5,59.5,0,0,0-5.85-1.51q-4.14-.91-9.58-1.95t-11.58-1.9q-6.13-.87-11.41-1.33a114,114,0,0,0-34.08,2,79,79,0,0,0-29.73,13,77.28,77.28,0,0,0-25.47,32.64,37.81,37.81,0,0,0,.63-9.65c-.16-3.85-.42-10.33-4.27-16.86a38.05,38.05,0,0,0-11.41-12.17A52.25,52.25,0,0,0,431.06,19a81.87,81.87,0,0,0-20.27-2.45,64.61,64.61,0,0,0-13.55,1.49q-6.94,1.5-13.13,3.42c-2.35.73-2.88,1-10.88,3.84-6.65,2.37-30.28,2.94-33,2.66q-9.28-1-13.13-1-3.4,0-3.41,2.78c0,1.57,1,2.56,3.09,3a61,61,0,0,0,7.37,1c2.84.21,5.76.5,8.75.85a16,16,0,0,1,7.25,2.45,50.73,50.73,0,0,1,1.18,6.62q.52,4.28,1.06,11.63t.75,18.35q.21,11,.21,26.79,0,17.28-.32,28.27t-1,18.36q-.63,7.37-1.49,12.27t-2.13,9.6c-1.61.56-3.63,1.2-6,1.81-2.17.57-3.93.9-7.47,1.57-2.67.51-3.91.69-4.57.77-1,.13-2,.21-2.85.26a16.3,16.3,0,0,1-5.42-.61,16,16,0,0,1-8.31-5.51c-2.14-2.92-2-5.94-2.67-9.44q-1.23-6.64-2.13-18.15t-1.85-29.94q-.86-16.89-1.06-31.73t0-26.4q.18-11.57.88-19.41c.47-5.22,1-8.74,1.67-10.53a6.79,6.79,0,0,1,4.53-1.77c1.9-.1,3.77-.11,5.61-.06a16.16,16.16,0,0,0,4.7-.46c1.31-.36,1.91-1.49,1.81-3.39s-.8-2.75-2.13-3q-7.22.81-14.11,1.49t-14.58,1.07q-9.43.48-20.77.39t-21,.19A4.16,4.16,0,0,0,251,17.74a3.82,3.82,0,0,0-.65,2.23,9.13,9.13,0,0,0,.57,2.72,1.78,1.78,0,0,0,2.26,1.1,48.75,48.75,0,0,1,5.48-.5c2.48-.13,5-.21,7.46-.27a42,42,0,0,1,6.62.33c1.92.27,3,.69,3.14,1.27q1.9,2.76,3,15.25T281,74.07a421.45,421.45,0,0,1,.13,48.07q-1.31,19.76-9,28.94-3.73,4.59-11.74,9.29a43.46,43.46,0,0,1-19.19,5.48,40.76,40.76,0,0,1-20.34-4A44.59,44.59,0,0,1,204.67,148q-6.85-9.22-11.06-23a122.3,122.3,0,0,1-4.89-31.32A108.34,108.34,0,0,1,191,66.1a114.89,114.89,0,0,1,6.82-21.57,65.77,65.77,0,0,1,8.5-14.62c3-3.67,5.45-5.93,7.47-6.76L213.53,19a469.2,469.2,0,0,0-59,4.47l-.38.05h-.09c-20.88,3.54-28.33,5.32-42,6.86l-1.18.13-.75.07c-2.41.24-5.18.55-8.32,1a2.46,2.46,0,0,0-2,1.51,4.91,4.91,0,0,0-.44,2.8,4.14,4.14,0,0,0,1.35,2.56,3.52,3.52,0,0,0,3.39.6L108,37.93c1.54-.42,3-.77,4.54-1s2.87-.48,4.14-.65a3.68,3.68,0,0,1,2.67.35q2,1.34,3.39,5a78.33,78.33,0,0,1,2.89,12q1.77,10.27,3.91,28.83t6.08,49.32a61.56,61.56,0,0,1-.26,15,55.65,55.65,0,0,1-4.81,16.82,43.28,43.28,0,0,1-10.83,14.39q-7.06,6.27-18.52,7.73a53.11,53.11,0,0,1-18.72-.91,44.92,44.92,0,0,1-17.25-8.18A50.59,50.59,0,0,1,51.55,160q-5.7-10.57-7.73-26.52a209.12,209.12,0,0,1-1.73-33.21,199.57,199.57,0,0,1,2.69-28.08A135.64,135.64,0,0,1,49.89,51.4Q52.82,43,55.7,40.62c0-.3-.11-.86-.21-1.69s-.25-1.3-.42-1.43Q48.88,39,42.6,39.9T26.44,42.07l-8.53,1.09c-2.25.29-4.14.61-5.7,1A21.85,21.85,0,0,0,8.37,45.3,10.18,10.18,0,0,0,5.62,47a10.1,10.1,0,0,0-4.09,6.34q-.76,3.87-1.37,8C-.3,65,.25,66.87,1.8,67.13s2.68-.49,3.36-2.25q1.94-4.59,10.26-8.16t24.42-4.49c-.39.51-1.41,2.12-3,4.84S33.28,63.42,31.12,68s-4.38,9.8-6.65,15.8a162,162,0,0,0-6,19.48,159.28,159.28,0,0,0-3.69,22,102.05,102.05,0,0,0,.35,23.23q1.89,14.83,8.26,25.42a51.06,51.06,0,0,0,16.32,17,60.91,60.91,0,0,0,23,8.58,97.36,97.36,0,0,0,28.56.23,51.52,51.52,0,0,0,16.16-4.8,84,84,0,0,0,14-8.52,85.92,85.92,0,0,0,11.06-9.86,75.38,75.38,0,0,0,7.41-9.05c.26,2.1.62,5.17,1.06,9.23s.86,8.25,1.27,12.61.77,8.46,1.11,12.3.53,6.51.57,8a15.51,15.51,0,0,1-3.83,11.1,17,17,0,0,1-11,5.4,111.1,111.1,0,0,1-19.79.47Q98.1,226,86.66,224.84t-22-2a128.35,128.35,0,0,0-18.07-.32,22.73,22.73,0,0,0-4,2.91,85.59,85.59,0,0,0-7.35,6.76,77.4,77.4,0,0,0-6.86,7.95c-2,2.69-2.92,4.78-2.73,6.28a3,3,0,0,0,1.49,1.86c.92.65,1.45.35,1.6-.88q0-2.06,3.23-3.27A32.12,32.12,0,0,1,39,242.45a78.56,78.56,0,0,1,14.47-.13q8.87.57,19.34,1.29t21.57.9a148.47,148.47,0,0,0,21.2-1.11,30.54,30.54,0,0,0,10.56-4A92,92,0,0,0,138.57,231a127,127,0,0,0,22.75-23.79,67.4,67.4,0,0,0,7.13-12.09q2.56-5.81,2-10.08c-.4-3.14-.88-6.23-1.42-9.29s-1.16-7-1.85-11.85-1.61-11.1-2.74-18.71c-.44-3-.93-6.44-1.45-10.22a65.09,65.09,0,0,0,2.37,6.14,60.32,60.32,0,0,0,15,20.91,62,62,0,0,0,21.64,12.32,81.91,81.91,0,0,0,26.38,4q18.42-1.15,31-7.62a77.3,77.3,0,0,0,20.9-15.25c.23,4.54.48,8,.75,10.52,0,0,0,.2,0,.53-.57.43-1.38,1.06-2.61,1.95-1,.73-.89.58-1.21.86a20.52,20.52,0,0,0-3.37,3.79,30,30,0,0,0-2.61,4.61q-1.12,2.46-2.08,4.35a138.44,138.44,0,0,0-16.44-3,113,113,0,0,0-24.31-.73c-6.67.57-16.67,1.52-28.28,6.74a62.82,62.82,0,0,0-19.6,13A49.64,49.64,0,0,0,169,215.57a43.58,43.58,0,0,0-2.8,19.91q1,10.7,5.37,17.15a31.64,31.64,0,0,0,11.14,10.11,54.55,54.55,0,0,0,15,5.38q8.23,1.72,16.78,3T231.23,274a62.25,62.25,0,0,1,14.93,4.83,29.22,29.22,0,0,1,11,9.11q4.35,5.89,5.27,15.92,1.08,12-6,20.43t-24.07,9.48a45.11,45.11,0,0,1-15-1.79,63.61,63.61,0,0,1-14.59-6.09,49.31,49.31,0,0,1-11.61-9.06,22.64,22.64,0,0,1-6-10.46q-.45-4.9-1.28-9.21a29,29,0,0,0-2.48-7.52,13.32,13.32,0,0,0-4-4.92,8.7,8.7,0,0,0-6-1.36,9.2,9.2,0,0,0-4.79,1.67,13.89,13.89,0,0,0-3.09,3.08,11.27,11.27,0,0,0-1.63,3.07,8.72,8.72,0,0,0-.42,1.61c.19.43.44.67.74.72a3.48,3.48,0,0,0,.91,0,17.82,17.82,0,0,1,3.18-2.08,8.71,8.71,0,0,1,3-1.18c2.08-.19,4,1,5.83,3.52s2.94,6.4,3.41,11.6a41.36,41.36,0,0,1-.31,10.24,65.2,65.2,0,0,1-2.28,9.53q-1.5,4.63-3.25,8.83t-3.43,7.95a71.48,71.48,0,0,0,8.54,2.49,132,132,0,0,0,13.24,2.39q7.52,1,16.31,1.44a127,127,0,0,0,17.93-.39,58.21,58.21,0,0,0,22.73-7,71.48,71.48,0,0,0,19.09-15A67.13,67.13,0,0,0,279.8,305.5a50.5,50.5,0,0,0,3.46-14.79c.41,1.32.85,2.62,1.34,3.87a58.32,58.32,0,0,0,13.47,20.9,59.87,59.87,0,0,0,20.27,12.94,78.87,78.87,0,0,0,25.24,5.2q17.82-.21,30.23-5.83a74.75,74.75,0,0,0,20.9-13.69q0,6.58.21,10.18a25.3,25.3,0,0,0,.75,5.41q.52,1.8,1.59,2.13a9.9,9.9,0,0,0,2.76.31q1.05,0,3.6-.21t5.52-.42q3-.21,5.83-.53c1.91-.21,3.43-.39,4.56-.53q1.7,2.54,6.79,5.3A24.13,24.13,0,0,0,438,338.5c3.82,0,5.73-1.35,5.73-4,0-.71-.5-1-1.49-1s-1.91.11-2.75.11a14.64,14.64,0,0,1-5.2-.85c-1.49-.57-3-1.2-4.56-1.91a8,8,0,0,1-3.19-3.82,35.32,35.32,0,0,1-2.12-9.23q-.84-6.46-1.16-17.61t-.32-28.95q0-16.33.53-30.66t1.27-25.46q.33-5,.74-9.31c2,0,7.42-.43,9.75-.28a10.42,10.42,0,0,1,6.39,2.6c2.36,2.37,1.83,5.82,2.31,9.21q.9,6.47,1.42,17.06t.66,26.52q.18,19.51.08,33.31t-.32,23.12q-.24,9.34-.82,15a60.69,60.69,0,0,1-1.41,8.71,10.84,10.84,0,0,1-1.87,4.26,5.39,5.39,0,0,1-2.53,1.61,17.75,17.75,0,0,1-4,.57c-1.7.09-3.32.13-4.88.15l-2.76,0c-.71,0-1.3.48-1.79,1.4a5.31,5.31,0,0,0-.72,2.44c0,1.13.44,1.7,1.29,1.69s2.58-.31,5.19-.47,5.62-.3,9-.4l10.92-.31c3.89-.11,7.67-.17,11.35-.2,1.41,0,3.36,0,5.83.05s5,.06,7.54,0,4.84,0,6.89,0,3.5.08,4.35.07a2.29,2.29,0,0,0,1.8-.86,2.46,2.46,0,0,0,.73-1.28,6.11,6.11,0,0,0-.44-2,1.81,1.81,0,0,0-1.92-1.15,17.34,17.34,0,0,0-2.87.23,19.85,19.85,0,0,1-3.28.25c-3.26,0-5.24-.2-6-.69a6.23,6.23,0,0,1-1.93-2.64,16.48,16.48,0,0,1-.89-4q-.45-3.18-.91-7.74c-.31-3-.56-6.43-.73-10.18s-.28-7.66-.32-11.77q-.08-9.75-.07-20.58t.13-20.58q.12-9.75.49-17.19a76.45,76.45,0,0,1,1-10.4,30.5,30.5,0,0,1,5.72-12.68,52.72,52.72,0,0,1,24-18,41.82,41.82,0,0,1,14.29-2.78,34.55,34.55,0,0,1,15.31,3.36,36.6,36.6,0,0,1,12.82,10.39A52.77,52.77,0,0,1,553.16,239a82.92,82.92,0,0,1,3.4,24.16,252,252,0,0,1-1.15,26.32q-1.26,13.17-3.18,24.42a176,176,0,0,1-4.38,19.67q-2.48,8.4-4.78,12a7.68,7.68,0,0,1-2,1.61,6.78,6.78,0,0,1-1.27.43,1.15,1.15,0,0,0-.74.43,3.61,3.61,0,0,0-.19,1.6c0,1.41,1.08,2.11,3.2,2.09l9.86-.09q6.48-.06,13.15-.22t12.41-.22l7.43-.06a3.24,3.24,0,0,0,2.63-1.94,6.49,6.49,0,0,0,1.15-3,2.71,2.71,0,0,0-.44-1.48c-.58-.84-1.15-1.12-1.71-.83a7.13,7.13,0,0,1-3.49,1.3,47.47,47.47,0,0,1-5,.26c-3.68,0-6.26-.4-7.76-1.31a4.22,4.22,0,0,1-2.26-3.69,34.13,34.13,0,0,1,1.62-8.93q1.65-5.75,4.13-13.08l5.37-16q2.9-8.62,5.36-17.77t4.08-18.39a98.86,98.86,0,0,0,1.54-17.94Q590,235,585.61,225.21a44.51,44.51,0,0,0-10.74-14.92l4.76.8q6.14,1,11.92,2.13c1.48.28,3.52.69,6.1,1.26s5.21,1.09,7.88,1.59,5.07,1,7.21,1.47,3.65.8,4.54,1a2.46,2.46,0,0,0,2.06-.54c.63-.49,1-.89,1-1.19a6.55,6.55,0,0,0,0-2.19,1.93,1.93,0,0,0-1.77-1.6,17.47,17.47,0,0,0-3-.35,20.06,20.06,0,0,1-3.49-.42q-5.12-1-6.08-1.95a6.61,6.61,0,0,1-1.48-3.16,17.15,17.15,0,0,1-.1-4.39q.18-3.42.63-8.29c.3-3.24.75-6.85,1.34-10.8s1.29-8.09,2.1-12.4q1.92-10.23,4.16-21.56T617,128.15q2.14-10.19,4-17.9a84.63,84.63,0,0,1,3.16-10.69,32.59,32.59,0,0,1,8.61-12.09,56.16,56.16,0,0,1,28.87-13.93,44.75,44.75,0,0,1,15.54,0,37,37,0,0,1,15.34,6.68,39,39,0,0,1,11.28,13.52,56.32,56.32,0,0,1,5.7,20,88.42,88.42,0,0,1-1.43,26A266.93,266.93,0,0,1,701.46,167q-4.05,13.53-8.36,24.92a186.57,186.57,0,0,1-8.65,19.69q-4.32,8.29-7.48,11.61a8.08,8.08,0,0,1-2.43,1.27,7.17,7.17,0,0,1-1.41.2,1.15,1.15,0,0,0-.87.3,3.66,3.66,0,0,0-.53,1.62q-.42,2.23,2.92,2.85L685,231.45q6.79,1.28,13.82,2.47c4.69.81,9,1.58,13,2.34l7.79,1.46c1,.19,2.09-.3,3.15-1.48a6.79,6.79,0,0,0,1.81-2.89,2.83,2.83,0,0,0-.15-1.64c-.43-1-1-1.41-1.61-1.22a7.64,7.64,0,0,1-3.93.64,50.44,50.44,0,0,1-5.27-.76c-3.86-.72-6.47-1.71-7.85-3a4.48,4.48,0,0,1-1.6-4.33,36.16,36.16,0,0,1,3.53-9q2.91-5.67,7-12.85t8.92-15.6q4.8-8.43,9.27-17.5T741,149.7a105.2,105.2,0,0,0,5.31-18.47Q748.94,117.22,746.31,106ZM171,63.59a156.3,156.3,0,0,0-8.8,23.88,84.36,84.36,0,0,0-3,16.93c-.6-5.25-1.21-10.5-1.83-15.72Q155.79,75.52,155,64.45t-1.09-19.26c0-1.3-.05-2.5,0-3.62a7.68,7.68,0,0,1,4.2-4.49A39,39,0,0,1,166.77,34a88.32,88.32,0,0,1,11.67-1.91q6.45-.66,13-1.21-3.76,3.71-9.48,12.58A168.71,168.71,0,0,0,171,63.59ZM448.14,87.42c6.09-5.85,9.14-8.78,11.62-13.59l.07-.14a113.58,113.58,0,0,0-4.1,22.36A85.87,85.87,0,0,0,456.5,118a39.35,39.35,0,0,0-7-4.63,58.57,58.57,0,0,0-14.08-5.12,72.78,72.78,0,0,0-16.54-1.82,104.11,104.11,0,0,0,14.72-7.57q2.43-1.49,4.73-3.12A87.65,87.65,0,0,0,448.14,87.42Zm-69.57-2q.21-9.28.64-17.92c.1-2.11.37-6,.62-9.66.21-3,.31-4.53.44-6.24.9-11.64,1.54-14.13,3.05-16.52a23.33,23.33,0,0,1,2.93-3.65,24.7,24.7,0,0,1,6.4-4.38A42,42,0,0,1,400,23.93a22.75,22.75,0,0,1,6.73-1.17,20.32,20.32,0,0,1,10.45,2.88A26.37,26.37,0,0,1,425.73,34a45.56,45.56,0,0,1,5.76,13,63.55,63.55,0,0,1,2.13,17.18,44.75,44.75,0,0,1-1.7,12.48,57.77,57.77,0,0,1-4.16,10.57,53,53,0,0,1-5.13,8.1,24.11,24.11,0,0,1-4.8,4.91,21.49,21.49,0,0,1-7.79,3.84,42,42,0,0,1-10.35,1.07q-7,0-13.12-.21T378.35,103Q378.35,94.68,378.57,85.39ZM495.16,206a91.49,91.49,0,0,0-13.61,8.19,50.72,50.72,0,0,0-8.32,7.28c0-1,0-2.51.17-4.56s.28-4.21.48-6.47.35-4.39.47-6.37.25-3.4.39-4.25c.26-1.84-.66-2.54-2.78-2.1a90.36,90.36,0,0,1-11.23,1.59q-5.94.48-15.06.56l-19.61.31c.15-1.29.31-2.52.47-3.68q1.07-7.53,2.13-10.08a6.55,6.55,0,0,1,4.45-1.48c1.84,0,3.64.07,5.41.21a15.68,15.68,0,0,0,4.56-.21c1.28-.28,1.91-1.34,1.91-3.18s-.63-2.69-1.91-3c-4.66.28-9.23.53-13.68.74s-9.16.32-14.11.32q-9.12,0-20.05-.64T375,178.32a4,4,0,0,0-1.8,1.49,3.65,3.65,0,0,0-.75,2.12,8.78,8.78,0,0,0,.43,2.65,1.71,1.71,0,0,0,2.12,1.17,47.86,47.86,0,0,1,5.31-.21q3.6,0,7.21.1a40.6,40.6,0,0,1,6.36.64q2.76.53,3,1.38,1.69,2.76,2.12,14.85t.43,33.09A405.82,405.82,0,0,1,397.15,282q-2.22,19-10.08,27.47-3.81,4.24-11.77,8.38a42,42,0,0,1-18.78,4.35,39.3,39.3,0,0,1-19.41-4.88,42.91,42.91,0,0,1-15-14.11,72.55,72.55,0,0,1-9.54-22.7A118.44,118.44,0,0,1,309.42,250a104.69,104.69,0,0,1,3.51-26.52A111.07,111.07,0,0,1,320.56,203a63.85,63.85,0,0,1,8.91-13.69q4.56-5.08,7.54-6.15v-4q-4,.44-6.26.64t-6.9.21c-3,0-6.44-.11-10.39-.32s-7.85-.42-11.67-.64-7.29-.45-10.4-.74-5.3-.49-6.58-.63a15,15,0,0,0-3.71-.32c-.92.07-1.66.81-2.23,2.22a16.89,16.89,0,0,0-1.37,4.35c-.22,1.35-.47,2.94-.75,4.78s-.46,3.71-.53,5.19-.1,3-.1,4.57a2.35,2.35,0,0,0,1.06.21c.7,0,1.06-.14,1.06-.43q.84-2.74,4.35-4.35a37.79,37.79,0,0,1,8.59-2.54,84.48,84.48,0,0,1,11.35-1.27q6.25-.33,12.62-.53-3.81,3.39-9.76,11.66a165.35,165.35,0,0,0-11.56,18.89,149.73,149.73,0,0,0-9.65,22.59,75.84,75.84,0,0,0-4.24,22.81c0,1.35,0,2.69,0,4a27.85,27.85,0,0,0-4.11-6.46,47.22,47.22,0,0,0-15.21-11.65A78.61,78.61,0,0,0,241.07,245q-10.63-2.07-20.43-3.65-15.72-2.4-24-9.4t-9.12-16.35a18.78,18.78,0,0,1,1.17-8.2,22.27,22.27,0,0,1,4.92-7.74,27.26,27.26,0,0,1,8.56-5.95,36,36,0,0,1,11.86-3,50.54,50.54,0,0,1,19.81,1.8,46.49,46.49,0,0,1,15.33,7.93,44.3,44.3,0,0,1,10.38,11.75,40.63,40.63,0,0,1,5.25,13.23,8.84,8.84,0,0,0,2.47,0,8.07,8.07,0,0,0,2-.4,1.64,1.64,0,0,0,1.06-.77,139,139,0,0,1,.06-17.61,101.4,101.4,0,0,1,2.27-14.84s2.37-12.75,6.9-16.53a14.52,14.52,0,0,1,1.38-1,19.8,19.8,0,0,1,1.75-1,13.79,13.79,0,0,1,2-.88,1.36,1.36,0,0,1,.25-.08l.34-.11a22.43,22.43,0,0,1,2.59-.54c8.3-1.21,14.36,2.88,25.05,5.36.76.18,1.29.29,1.6.35a60.87,60.87,0,0,0,9.64,1h.2a5.61,5.61,0,0,0,.84,0h.11s1.27,0,2.59,0a10.29,10.29,0,0,0,1.1,0c3.17-.16,22.45-1.53,34.18-1.73a232.66,232.66,0,0,1,24.33.75q10.67.75,16.86.53a6.14,6.14,0,0,0,3.41-.74,2.18,2.18,0,0,0,1.07-1.82c0-1.42-1-2.34-2.88-2.77a44.27,44.27,0,0,0-7.15-.86q-4.27-.21-9.07-.74a20.86,20.86,0,0,1-8.64-2.88,69.78,69.78,0,0,1-2.35-16.76c-.29-6.89-.43-12.81-.43-20.07V112.17a11.15,11.15,0,0,0,1.28-.1,17.89,17.89,0,0,1,2.14-.11h4.9q3.21,0,6.94.32t7.79,1.07a30.46,30.46,0,0,1,7.26,2.24,64.85,64.85,0,0,1,13.76,10.14,190.79,190.79,0,0,1,13.34,13.87q6.4,7.36,12.06,14.4t9.92,11.74q5.76,6.4,12.27,12.38a100.46,100.46,0,0,0,13.66,10.56A72.48,72.48,0,0,0,498.61,196a48.22,48.22,0,0,0,15.21,2.76l-1.53.43A112.13,112.13,0,0,0,495.16,206Zm78.52-8c-1.06,2.39-2.2,4.64-4.26,5.36a7,7,0,0,1-1.51.32,12.19,12.19,0,0,1-4-.75l-.12,0a57.38,57.38,0,0,0-9.06-3.5,80.43,80.43,0,0,0-23.58-3.08c-.8,0-1.61,0-2.41.07a14.11,14.11,0,0,0,7.33-7.17c-.14-.71-.32-1.42-.53-2.13a1.35,1.35,0,0,0-1.39-1.07,2.89,2.89,0,0,0-1.71.64,7.31,7.31,0,0,1-2.77,3.42A15,15,0,0,1,525.5,192a24.56,24.56,0,0,1-4.7.85c-1.64.14-3.09.22-4.37.22a29.42,29.42,0,0,1-17.82-5.87,72.4,72.4,0,0,1-14.51-14.3q-2.48-3.19-4.75-6.5c-1.06-1.54-3.45-5.08-7-11.21-2-3.53-4.5-8-7.16-13.31a62.33,62.33,0,0,0,6.56,9,72,72,0,0,0,23.53,17.35q14.25,6.78,33.39,8.46,4.83.42,11.24.65t12.84.24q6.42,0,12.06.17t8.94.45a6.11,6.11,0,0,1,3.51,1.41,3.75,3.75,0,0,1,1.45,2.75l-.27,1v.05c-.17.61-.44,1.62-.54,2v0c-.32,1.23-.64,2.46-.94,3.7A80.25,80.25,0,0,1,573.68,198Zm25.9-129.43c-.76,6-1.14,12.13-2,18.16q-1.65,11.2-4.78,27.9-3.84,20.48-6.78,34.89l-.15.77a48.83,48.83,0,0,1-5.9,6.5,48,48,0,0,1-9.57,6.81,54.32,54.32,0,0,1-14,5,59.81,59.81,0,0,1-18.47.93,51.2,51.2,0,0,1-18.74-5,44.72,44.72,0,0,1-13.4-10.15A52.38,52.38,0,0,1,497,140.78,79.71,79.71,0,0,1,492,125.37a88.84,88.84,0,0,1-2.06-15.69,110.56,110.56,0,0,1,.26-14.39q3.75.12,12.9.69t24.1,1.89q7.92.69,14.72,1.51a81.7,81.7,0,0,1,12.1,2.28,27.41,27.41,0,0,1,8.54,3.74,8.68,8.68,0,0,1,3.81,5.87,4,4,0,0,0,2.32,2.64c1.33.71,2.22.34,2.64-1.1a62.11,62.11,0,0,1,1.8-10.48,71.94,71.94,0,0,1,3-9q1.68-4.07,3.07-7.16a52.89,52.89,0,0,0,2-5,3.28,3.28,0,0,0-2.22-1.3,2.44,2.44,0,0,0-2.62.87,16.57,16.57,0,0,1-6.23,2.78,70.74,70.74,0,0,1-10.14,1.89,114.18,114.18,0,0,1-12.7.77q-6.87.06-13.91-.55-3.11-.06-9.25-.7t-12.73-1.45q-6.57-.8-12.14-1.73a55.48,55.48,0,0,1-7.29-1.52A89,89,0,0,1,498.07,58a72.47,72.47,0,0,1,11.15-18.53,49.93,49.93,0,0,1,15.27-12.4A33.06,33.06,0,0,1,543,23.46a50.79,50.79,0,0,1,15.63,3.69A46.64,46.64,0,0,1,570.2,34a38.85,38.85,0,0,1,7.49,8.08,25.11,25.11,0,0,1,3.57,7.3A5,5,0,0,0,582.47,52a2.37,2.37,0,0,0,.86.6l.08,0a7.45,7.45,0,0,0,1.11.25c.82.09,2.79.51,3.48.65l.54.1.74.13c6.6,1.09,8.9,3.15,8.9,3.15C600,58.57,600.42,62,599.58,68.57Z"/></g></g></svg>